<svg xmlns="http://www.w3.org/2000/svg" width="113.468" height="143.779" viewBox="0 0 113.468 143.779">
  <g id="Group_14" data-name="Group 14" opacity="0.5">
    <path id="Path_21" data-name="Path 21" d="M141.718,178.969h-59.2a3.548,3.548,0,0,1-3.615-2.578L55.436,60.574c-.384-1.895,1.342-3.625,3.615-3.625h106.13c2.273,0,4,1.73,3.615,3.625L145.333,176.391A3.548,3.548,0,0,1,141.718,178.969Z" transform="translate(-55.383 -35.19)" fill="#37bd6b"/>
    <rect id="Rectangle_22" data-name="Rectangle 22" width="113.467" height="11.076" rx="5" transform="translate(0 8.577)" fill="#37bd6b"/>
    <rect id="Rectangle_23" data-name="Rectangle 23" width="48.891" height="6.471" rx="3.236" transform="translate(32.288)" fill="#37bd6b"/>
    <path id="Path_22" data-name="Path 22" d="M120.957,144.529v7.176a.843.843,0,0,0,.429.735l12.52,7.077a.843.843,0,0,1,.428.735v7.092a.843.843,0,0,1-1.259.735l-19.665-11.114a.844.844,0,0,1-.429-.735V130.991a.844.844,0,0,1,1.259-.735l19.665,11.114a.845.845,0,0,1,.428.735V149.2a.844.844,0,0,1-1.259.735l-10.859-6.138a.844.844,0,0,0-1.259.735" transform="translate(-78.445 -64.497)" fill="#fff"/>
    <path id="Path_23" data-name="Path 23" d="M172.76,154.211V161.3a.843.843,0,0,1-.429.735l-12.906,7.294-6.758,3.821a.844.844,0,0,1-1.259-.735V147.263a.844.844,0,0,1,.427-.733l6.33-3.6a.844.844,0,0,1,1.261.734v15.189a.844.844,0,0,0,1.259.735l10.816-6.113a.844.844,0,0,1,1.259.735" transform="translate(-93.83 -69.572)" fill="#fff"/>
    <path id="Path_24" data-name="Path 24" d="M156.4,117.617l-10.486-5.927a17.7,17.7,0,0,1,.261,3.035,11.108,11.108,0,0,1-.44,3.117,13.345,13.345,0,0,1-5.428,7.2.246.246,0,0,1-.379-.242,16.245,16.245,0,0,1,1.555-5.226,15.94,15.94,0,0,0,1.552-4.616.088.088,0,0,0-.112-.1c-.9,2.139-3.132,4.971-3.8,7.484-.8,3.022-1.511,5.155-1.511,5.155-.008-.031-.017-.062-.026-.093-.068.212-.106.327-.106.327a10.269,10.269,0,0,0-.771-1.866c-3.253-5.422-.759-12.47,1.193-14.422a25.77,25.77,0,0,0,2.376-2.936l-3.516-1.987a.845.845,0,0,0-.831,0l-.173.1c.518.649,1.06,1.281,1.62,1.873a.83.83,0,0,1-.045,1.185c-.94.854-2.581,2.924-3.342,7.356a.333.333,0,0,1-.468.245.315.315,0,0,1-.351-.154,24.935,24.935,0,0,1-2.774-7.47l-.1.059a37.022,37.022,0,0,0,2.075,8.63c2.133,4.888,3.022,8.444,3.733,9.777-.943,0-5.379-3.421-7.871-9.3-.025-.058-.05-.117-.074-.176l-.015-.036a20.886,20.886,0,0,1-1.218-4.029c-.012-.063-.024-.127-.035-.19l-.016-.084a21.132,21.132,0,0,1-.307-2.48l-10.234,5.795a.844.844,0,0,0,0,1.47l19.6,11.062a.843.843,0,0,0,.829,0L156.4,119.087a.844.844,0,0,0,0-1.47" transform="translate(-79.615 -54.994)" fill="#fff"/>
  </g>
</svg>
