<svg xmlns="http://www.w3.org/2000/svg" width="284.204" height="54.425" viewBox="0 0 284.204 54.425">
  <path id="Path_1" data-name="Path 1" d="M176.75,125.779a15.729,15.729,0,0,1,4.46,2.907l-2.71,3.162a12.428,12.428,0,0,0-3.246-2.089,9.005,9.005,0,0,0-3.529-.678,8.1,8.1,0,0,0-7,3.755q-2.6,3.755-2.6,12.11,0,8.13,2.6,12a8.039,8.039,0,0,0,7,3.867,8.372,8.372,0,0,0,3.783-.79,19,19,0,0,0,3.444-2.315l2.653,3.105a13.678,13.678,0,0,1-10.162,4.347,13.486,13.486,0,0,1-7.707-2.258,14.7,14.7,0,0,1-5.25-6.8,29.049,29.049,0,0,1-1.891-11.15,27.933,27.933,0,0,1,1.948-11.066,15.068,15.068,0,0,1,5.307-6.775,13.3,13.3,0,0,1,7.593-2.258A13.853,13.853,0,0,1,176.75,125.779Z" transform="translate(-156.595 -121.911)" fill="#37bd6b"/>
  <path id="Path_2" data-name="Path 2" d="M274.266,158.019q3.161,4.009,3.162,11.517,0,7.227-3.218,11.432a11.548,11.548,0,0,1-17.757.085q-3.19-4.12-3.19-11.461,0-7.4,3.218-11.489a11.785,11.785,0,0,1,17.784-.085Zm-13.945,2.851q-1.75,2.794-1.75,8.722,0,11.574,6.775,11.574t6.775-11.63q0-5.928-1.694-8.694a5.522,5.522,0,0,0-5.025-2.767A5.638,5.638,0,0,0,260.321,160.87Z" transform="translate(-222.947 -141.928)" fill="#37bd6b"/>
  <path id="Path_3" data-name="Path 3" d="M386.289,156.409a9.967,9.967,0,0,1,1.919,6.408v21.623h-5.025V163.382q0-5.42-3.5-5.42-3.388,0-6.21,5.194v21.285h-5.025V163.382q0-5.42-3.5-5.42-3.445,0-6.21,5.194v21.285h-5.025v-29.7h4.4l.4,4.347q3.274-5.081,7.9-5.081a6.229,6.229,0,0,1,4.121,1.412,7.813,7.813,0,0,1,2.427,4.008q3.443-5.42,8.186-5.42A6.244,6.244,0,0,1,386.289,156.409Z" transform="translate(-291.893 -141.928)" fill="#37bd6b"/>
  <path id="Path_4" data-name="Path 4" d="M506.873,158.019q2.456,4.009,2.456,11.461,0,7.227-2.739,11.461a8.629,8.629,0,0,1-7.65,4.234,8.522,8.522,0,0,1-7.114-3.557v14.114l-5.081.621V154.744h4.46l.282,4.008q3.048-4.742,8.073-4.742A8.029,8.029,0,0,1,506.873,158.019Zm-2.851,11.517q0-6.041-1.439-8.779a4.666,4.666,0,0,0-4.376-2.738,5.543,5.543,0,0,0-3.5,1.185,13.527,13.527,0,0,0-2.88,3.218V177.44q2.314,3.671,5.928,3.67Q504.022,181.11,504.022,169.536Z" transform="translate(-383.204 -141.928)" fill="#37bd6b"/>
  <path id="Path_5" data-name="Path 5" d="M597.758,158.019q3.161,4.009,3.161,11.517,0,7.227-3.218,11.432a11.547,11.547,0,0,1-17.756.085q-3.19-4.12-3.19-11.461,0-7.4,3.218-11.489a11.785,11.785,0,0,1,17.784-.085Zm-13.945,2.851q-1.751,2.794-1.75,8.722,0,11.574,6.775,11.574t6.775-11.63q0-5.928-1.694-8.694a5.523,5.523,0,0,0-5.025-2.767A5.637,5.637,0,0,0,583.813,160.87Z" transform="translate(-444.985 -141.928)" fill="#37bd6b"/>
  <path id="Path_6" data-name="Path 6" d="M686.862,157.4l-2.146,2.992a17.259,17.259,0,0,0-3.387-1.863,9.032,9.032,0,0,0-3.331-.621,5.532,5.532,0,0,0-3.641,1.1,3.714,3.714,0,0,0-1.327,3.02,3.638,3.638,0,0,0,1.27,2.936,15.174,15.174,0,0,0,4.827,2.2,16,16,0,0,1,6.493,3.444,7.553,7.553,0,0,1,2.032,5.589,7.913,7.913,0,0,1-3.049,6.577,11.941,11.941,0,0,1-7.622,2.4,14.2,14.2,0,0,1-10.219-4.008l2.6-2.823a11.761,11.761,0,0,0,7.509,2.879,6.146,6.146,0,0,0,4.009-1.242,4.2,4.2,0,0,0,1.524-3.444,5.207,5.207,0,0,0-.536-2.541,4.721,4.721,0,0,0-1.919-1.722,23.727,23.727,0,0,0-4.037-1.609,14.74,14.74,0,0,1-6.1-3.388,7.031,7.031,0,0,1-1.863-5.024,7.456,7.456,0,0,1,1.242-4.234,8.513,8.513,0,0,1,3.444-2.936,11.475,11.475,0,0,1,5.081-1.073A13.777,13.777,0,0,1,686.862,157.4Z" transform="translate(-506.764 -141.928)" fill="#37bd6b"/>
  <path id="Path_7" data-name="Path 7" d="M766.68,168.438a10.484,10.484,0,0,1-6.267,2.032,7.233,7.233,0,0,1-5.561-2.089,8.282,8.282,0,0,1-1.948-5.871V143.88H748.67v-3.839H752.9v-6.832l5.081-.621v7.453h6.549l-.565,3.839h-5.985v18.574q0,3.84,3.218,3.839a5.4,5.4,0,0,0,1.778-.283,11.676,11.676,0,0,0,1.835-.847Z" transform="translate(-562.984 -127.224)" fill="#37bd6b"/>
  <path id="Path_8" data-name="Path 8" d="M828.917,126.647v33.028h13.889l-.791,5.984H821.577V126.647Z" transform="translate(-613.026 -123.147)" fill="#37bd6b"/>
  <path id="Path_9" data-name="Path 9" d="M918.487,178.657a3.091,3.091,0,0,0,1.468,1.214l-1.468,4.685a9.19,9.19,0,0,1-3.924-1.242,5.7,5.7,0,0,1-2.23-2.992,8.932,8.932,0,0,1-8.017,4.347,8.305,8.305,0,0,1-6.38-2.541,9.369,9.369,0,0,1-2.371-6.662,8.941,8.941,0,0,1,3.218-7.424q3.218-2.569,9.316-2.569h2.992v-1.863a5.735,5.735,0,0,0-1.129-4.009,4.886,4.886,0,0,0-3.67-1.186,22.379,22.379,0,0,0-7.227,1.525l-1.637-4.686a25.846,25.846,0,0,1,9.993-2.145q10.614,0,10.614,10.106v13.1A4.721,4.721,0,0,0,918.487,178.657Zm-7.4-2.795v-6.211h-2.258q-6.211,0-6.21,5.307a5.238,5.238,0,0,0,.96,3.416,3.259,3.259,0,0,0,2.654,1.157Q909.34,179.532,911.09,175.862Z" transform="translate(-663.81 -141.31)" fill="#37bd6b"/>
  <path id="Path_10" data-name="Path 10" d="M1011.563,129.657a9.476,9.476,0,0,1,2.06,6.436V158h-7.057V137.053a5.626,5.626,0,0,0-.762-3.359,2.646,2.646,0,0,0-2.23-.988q-2.824,0-5.363,4.46V158h-7.057V116.22l7.057-.734v16.2a11.575,11.575,0,0,1,3.444-3.3,8.384,8.384,0,0,1,4.347-1.1A6.993,6.993,0,0,1,1011.563,129.657Z" transform="translate(-729.42 -115.486)" fill="#37bd6b"/>
</svg>
