<svg xmlns="http://www.w3.org/2000/svg" viewBox="0 0 49.6 49.6"><defs><style>.cls-1{fill:#4267b2;}</style></defs><title>Artboard 8</title><g id="Layer_3" data-name="Layer 3"><path id="logo-facebook-2" class="cls-1" d="M46.86,0H2.74A2.74,2.74,0,0,0,0,2.74V46.86A2.74,2.74,0,0,0,2.74,49.6H24.8V30.11H18.87V23H24.8V17.38C24.8,11,29.24,7.49,35,7.49c2.73,0,5.68.2,6.36.3v6.69H36.77c-3.11,0-3.7,1.47-3.7,3.64V23h7.42l-1,7.09H33.07V49.6H46.86a2.74,2.74,0,0,0,2.74-2.74V2.74A2.74,2.74,0,0,0,46.86,0Z"/></g></svg>