<svg id="location" xmlns="http://www.w3.org/2000/svg" width="32.757" height="45.859" viewBox="0 0 32.757 45.859">
  <ellipse id="Ellipse_1" data-name="Ellipse 1" cx="3" cy="3.5" rx="3" ry="3.5" transform="translate(13.907 11.8)" fill="#37bd6b"/>
  <path id="Path_14" data-name="Path 14" d="M112.379,32C103.348,32,96,39.027,96,47.662c0,4.112,1.874,9.581,5.571,16.254A120.1,120.1,0,0,0,109.76,76.53a3.25,3.25,0,0,0,5.243,0,120.6,120.6,0,0,0,8.189-12.614c3.69-6.671,5.565-12.14,5.565-16.254C128.757,39.027,121.409,32,112.379,32Zm0,22.93a6.551,6.551,0,1,1,6.551-6.551A6.551,6.551,0,0,1,112.379,54.93Z" transform="translate(-96 -32)" fill="#37bd6b"/>
</svg>
