<svg xmlns="http://www.w3.org/2000/svg" viewBox="0 0 123.14 123.14"><defs><style>.cls-1{fill:#37bd6b;}</style></defs><title>qrLarge</title><g id="Layer_3" data-name="Layer 3"><path id="Rectangle_12" data-name="Rectangle 12" class="cls-1" d="M95.13,87.13h0a8,8,0,0,1,8,8h0a8,8,0,0,1-8,8h0a8,8,0,0,1-8-8h0A8,8,0,0,1,95.13,87.13Z"/><rect id="Rectangle_13" data-name="Rectangle 13" class="cls-1" x="67.13" y="67.13" width="20" height="20" rx="8"/><rect id="Rectangle_14" data-name="Rectangle 14" class="cls-1" x="103.13" y="103.13" width="20" height="20" rx="8"/><path id="Rectangle_15" data-name="Rectangle 15" class="cls-1" d="M116.13,67.13h0a7,7,0,0,1,7,7h0a7,7,0,0,1-7,7h0a7,7,0,0,1-7-7h0A7,7,0,0,1,116.13,67.13Z"/><path id="Rectangle_16" data-name="Rectangle 16" class="cls-1" d="M74.13,109.13h0a7,7,0,0,1,7,7h0a7,7,0,0,1-7,7h0a7,7,0,0,1-7-7h0A7,7,0,0,1,74.13,109.13Z"/><path id="Path_17" data-name="Path 17" class="cls-1" d="M114.34,0H74.76A8.8,8.8,0,0,0,66,8.8V48.37a8.8,8.8,0,0,0,8.8,8.8h39.58a8.8,8.8,0,0,0,8.8-8.8V8.8a8.8,8.8,0,0,0-8.8-8.8Zm-8.8,37.38a2.21,2.21,0,0,1-2.2,2.2H85.75a2.2,2.2,0,0,1-2.2-2.2h0V19.79a2.19,2.19,0,0,1,2.2-2.2h17.59a2.2,2.2,0,0,1,2.2,2.2h0Z"/><path id="Path_18" data-name="Path 18" class="cls-1" d="M48.37,0H8.8A8.8,8.8,0,0,0,0,8.8V48.37a8.8,8.8,0,0,0,8.8,8.8H48.37a8.8,8.8,0,0,0,8.8-8.8h0V8.8A8.8,8.8,0,0,0,48.37,0Zm-8.8,37.38a2.2,2.2,0,0,1-2.2,2.2H19.79a2.2,2.2,0,0,1-2.2-2.2V19.79a2.19,2.19,0,0,1,2.2-2.2H37.38a2.2,2.2,0,0,1,2.2,2.2Z"/><path id="Path_19" data-name="Path 19" class="cls-1" d="M48.37,66H8.8A8.8,8.8,0,0,0,0,74.76v39.58a8.8,8.8,0,0,0,8.8,8.8H48.37a8.8,8.8,0,0,0,8.8-8.8V74.76A8.8,8.8,0,0,0,48.37,66Zm-8.8,37.38a2.19,2.19,0,0,1-2.2,2.2H19.79a2.19,2.19,0,0,1-2.2-2.2h0V85.75a2.2,2.2,0,0,1,2.2-2.2H37.38a2.21,2.21,0,0,1,2.2,2.2h0Z"/></g></svg>