<svg xmlns="http://www.w3.org/2000/svg" xmlns:xlink="http://www.w3.org/1999/xlink" width="38.24" height="38.24" viewBox="0 0 38.24 38.24">
  <defs>
    <clipPath id="clip-tutorial">
      <rect width="38.24" height="38.24"/>
    </clipPath>
  </defs>
  <g id="tutorial" clip-path="url(#clip-tutorial)">
    <path id="help-circle" d="M83.119,64a19.119,19.119,0,1,0,19.119,19.119A19.124,19.124,0,0,0,83.119,64Zm-.6,30.272a1.992,1.992,0,1,1,1.992-1.992A1.992,1.992,0,0,1,82.522,94.272Zm3.33-10.157c-1.614,1.083-1.836,2.076-1.836,2.987a1.394,1.394,0,1,1-2.788,0A6.127,6.127,0,0,1,84.3,81.8c1.92-1.289,3.005-2.105,3.005-3.9a3.108,3.108,0,0,0-2.14-2.834,5.229,5.229,0,0,0-2.025-.308,4.346,4.346,0,0,0-2.771.855,3.565,3.565,0,0,0-1.428,2.23,1.4,1.4,0,0,1-2.788-.134,6.182,6.182,0,0,1,2.467-4.262A7.1,7.1,0,0,1,83.1,71.973a7.8,7.8,0,0,1,3.258.58A5.848,5.848,0,0,1,90.09,77.9C90.09,81.267,87.838,82.78,85.852,84.115Z" transform="translate(-64.097 -64)" fill="#37bd6b"/>
  </g>
</svg>
