<svg xmlns="http://www.w3.org/2000/svg" width="39" height="39" viewBox="0 0 39 39">
  <g id="Group_49" data-name="Group 49" transform="translate(-283.6 -115.6)">
    <circle id="Ellipse_6" data-name="Ellipse 6" cx="19.5" cy="19.5" r="19.5" transform="translate(283.6 115.6)" fill="#37bd6b"/>
    <g id="person" transform="translate(293.996 124.423)">
      <path id="Path_40" data-name="Path 40" d="M160.414,33.518a4.977,4.977,0,0,0-7.147-.009,4.931,4.931,0,0,0-1.252,3.763c.207,2.847,2.373,5.163,4.83,5.163s4.619-2.316,4.829-5.162A4.916,4.916,0,0,0,160.414,33.518Z" transform="translate(-147.358 -32)" fill="#fff"/>
      <path id="Path_41" data-name="Path 41" d="M65.506,296.944H49.454a1.4,1.4,0,0,1-1.1-.518,1.671,1.671,0,0,1-.327-1.356,7.985,7.985,0,0,1,3.474-5.3,11,11,0,0,1,11.966,0,7.984,7.984,0,0,1,3.474,5.3,1.671,1.671,0,0,1-.327,1.356A1.4,1.4,0,0,1,65.506,296.944Z" transform="translate(-47.994 -276.075)" fill="#fff"/>
    </g>
  </g>
</svg>
