<svg xmlns="http://www.w3.org/2000/svg" viewBox="0 0 88.94 124.52"><defs><style>.cls-1{fill:#37bd6b;}</style></defs><title>locLarge</title><g id="Layer_3" data-name="Layer 3"><path id="Path_14" data-name="Path 14" class="cls-1" d="M44.47,0C20,0,0,19.08,0,42.53c0,11.16,5.09,26,15.13,44.13a326.11,326.11,0,0,0,22.23,34.25,8.83,8.83,0,0,0,14.24,0A326.11,326.11,0,0,0,73.83,86.66c10-18.11,15.11-33,15.11-44.13C88.94,19.08,69,0,44.47,0Zm0,62.26A17.79,17.79,0,1,1,62.26,44.47,17.79,17.79,0,0,1,44.47,62.26Z"/></g></svg>