<svg id="Layer_1" data-name="Layer 1" xmlns="http://www.w3.org/2000/svg" viewBox="0 0 1219.39 233.51"><defs><style>.cls-1{fill:#37bd6b;}</style></defs><title>Artboard 7</title><path class="cls-1" d="M86.48,16.59a67.64,67.64,0,0,1,19.13,12.48L94,42.63a53.67,53.67,0,0,0-13.93-9,38.58,38.58,0,0,0-15.14-2.91q-18.9,0-30,16.11t-11.14,52q0,34.89,11.14,51.48t30,16.59a35.94,35.94,0,0,0,16.23-3.39,81.59,81.59,0,0,0,14.78-9.93l11.38,13.32q-18.16,18.66-43.6,18.65-18.66,0-33.07-9.69T8.11,146.67Q0,127.19,0,98.83q0-28.1,8.36-47.48T31.13,22.29A57,57,0,0,1,63.71,12.6Q76.79,12.6,86.48,16.59Z"/><path class="cls-1" d="M220.19,69q13.56,17.2,13.57,49.41,0,31-13.81,49.06t-38,18q-24.48,0-38.16-17.68t-13.68-49.18q0-31.72,13.81-49.29t38.27-17.56Q206.63,51.84,220.19,69ZM160.36,81.27q-7.52,12-7.51,37.42,0,49.67,29.07,49.66T211,118.45q0-25.42-7.27-37.3T182.16,69.28Q167.87,69.28,160.36,81.27Z"/><path class="cls-1" d="M405,62.13q8.24,10.31,8.24,27.5V182.4H391.69V92.05q0-23.25-15-23.26-14.54,0-26.64,22.29V182.4H328.47V92.05q0-23.25-15-23.26-14.77,0-26.65,22.29V182.4H265.24V55h18.9l1.69,18.65q14.06-21.79,33.92-21.8a26.73,26.73,0,0,1,17.68,6q7.26,6.06,10.42,17.2Q362.61,51.84,383,51.84,396.77,51.84,405,62.13Z"/><path class="cls-1" d="M530.61,69q10.53,17.2,10.54,49.17,0,31-11.75,49.17t-32.82,18.17q-18.9,0-30.53-15.26v60.56l-21.8,2.66V55h19.14l1.21,17.2q13.08-20.36,34.64-20.35Q520.08,51.84,530.61,69Zm-12.23,49.41q0-25.9-6.18-37.66T493.43,69a23.78,23.78,0,0,0-15,5.08,58.24,58.24,0,0,0-12.36,13.81v64.44q9.93,15.75,25.44,15.74Q518.37,168.11,518.38,118.45Z"/><path class="cls-1" d="M655.48,69q13.57,17.2,13.57,49.41,0,31-13.81,49.06t-38,18q-24.47,0-38.15-17.68t-13.69-49.18q0-31.72,13.81-49.29t38.27-17.56Q641.92,51.84,655.48,69ZM595.65,81.27q-7.51,12-7.51,37.42,0,49.67,29.07,49.66t29.07-49.9q0-25.42-7.27-37.3T617.45,69.28Q603.16,69.28,595.65,81.27Z"/><path class="cls-1" d="M772.72,66.37l-9.2,12.84a74,74,0,0,0-14.54-8,38.67,38.67,0,0,0-14.29-2.67q-9.93,0-15.62,4.73t-5.7,13q0,8,5.45,12.59t20.71,9.45q19.14,6.06,27.86,14.78t8.72,24q0,17.93-13.08,28.22t-32.7,10.29q-25.92,0-43.84-17.2l11.14-12.11q15.25,12.36,32.21,12.36,10.67,0,17.2-5.33t6.54-14.78q0-6.78-2.3-10.9t-8.23-7.39a101.62,101.62,0,0,0-17.32-6.9q-18.18-6.06-26.16-14.54t-8-21.56A32,32,0,0,1,696.9,69a36.52,36.52,0,0,1,14.78-12.6,49.29,49.29,0,0,1,21.8-4.6A59.1,59.1,0,0,1,772.72,66.37Z"/><path class="cls-1" d="M874,176.83a45,45,0,0,1-26.89,8.72q-15.5,0-23.86-9t-8.35-25.19V71.46H796.7V55h18.17V25.68L836.67,23V55h28.1l-2.42,16.47H836.67v79.69q0,16.48,13.81,16.48a23,23,0,0,0,7.63-1.22,49.72,49.72,0,0,0,7.87-3.63Z"/><path class="cls-1" d="M926.29,15V156.73h59.59l-3.39,25.67H894.8V15Z"/><path class="cls-1" d="M1092.71,160.24a13.24,13.24,0,0,0,6.3,5.21l-6.3,20.1q-10.43-1.22-16.84-5.33t-9.57-12.84Q1054.44,186,1031.91,186q-17.21,0-27.37-10.9t-10.18-28.59q0-20.82,13.81-31.85t40-11H1061v-8q0-12.11-4.85-17.2t-15.74-5.08q-12.6,0-31,6.54l-7-20.11q22-9.19,42.88-9.2,45.54,0,45.54,43.36v56.2Q1090.77,157,1092.71,160.24Zm-31.73-12V121.6h-9.69q-26.65,0-26.65,22.77,0,9.69,4.12,14.66t11.38,5Q1053.46,164,1061,148.25Z"/><path class="cls-1" d="M1210.55,60.8q8.85,10.17,8.84,27.62v94h-30.27V92.53q0-10.17-3.27-14.41t-9.57-4.24q-12.12,0-23,19.14V182.4H1123V3.15L1153.27,0V69.52q6.78-9.45,14.77-14.17a36,36,0,0,1,18.65-4.72Q1201.72,50.63,1210.55,60.8Z"/></svg>